<svg width="853" height="719" viewBox="0 0 853 719" fill="none" xmlns="http://www.w3.org/2000/svg">
<path opacity="0.010101" d="M275.094 362.606C269.613 356.931 268.343 348.417 271.894 341.403L272.067 341.07L409.643 82.3265C413.347 75.3605 421.051 71.5217 428.82 72.7311L429.19 72.7926L717.782 123.679C725.675 125.071 731.774 131.387 732.89 139.324L773.674 429.517C774.772 437.329 770.795 444.963 763.799 448.551L763.464 448.719L500.077 577.181C492.986 580.64 484.497 579.216 478.923 573.671L478.659 573.405L275.094 362.606Z" stroke="url(#paint0_linear_15_91175)" stroke-width="3"/>
<path opacity="0.020202" d="M271.8 358.997C266.419 353.227 265.298 344.692 268.97 337.741L269.149 337.411L410.935 81.6224C414.76 74.7221 422.53 71.0184 430.277 72.3632L430.645 72.4311L717.729 128.234C725.596 129.764 731.585 136.185 732.561 144.14L768.203 434.417C769.164 442.248 765.054 449.811 757.997 453.276L757.659 453.439L492.603 577.036C485.452 580.37 476.989 578.799 471.513 573.157L471.254 572.886L271.8 358.997Z" stroke="url(#paint1_linear_15_91175)" stroke-width="3"/>
<path opacity="0.030303" d="M268.587 355.392C263.308 349.529 262.336 340.977 266.13 334.09L266.314 333.763L412.248 80.9976C416.193 74.1651 424.027 70.5977 431.749 72.0773L432.116 72.1517L717.607 132.835C725.446 134.501 731.321 141.026 732.159 148.997L762.668 439.267C763.492 447.113 759.252 454.603 752.135 457.945L751.794 458.101L485.158 576.815C477.951 580.024 469.516 578.305 464.139 572.569L463.885 572.293L268.587 355.392Z" stroke="url(#paint2_linear_15_91175)" stroke-width="3"/>
<path opacity="0.040404" d="M265.456 351.794C260.28 345.84 259.457 337.272 263.37 330.452L263.561 330.129L413.582 80.4523C417.645 73.6899 425.539 70.2598 433.234 71.8739L433.601 71.9545L717.416 137.478C725.225 139.281 730.986 145.908 731.684 153.892L757.071 444.065C757.759 451.924 753.387 459.339 746.213 462.556L745.87 462.707L477.745 576.519C470.482 579.602 462.078 577.737 456.802 571.908L456.554 571.627L265.456 351.794Z" stroke="url(#paint3_linear_15_91175)" stroke-width="3"/>
<path opacity="0.050505" d="M262.406 348.203C257.335 342.16 256.662 333.578 260.693 326.828L260.889 326.508L414.933 79.9862C419.114 73.2957 427.067 70.004 434.732 71.7521L435.097 71.8391L717.156 142.164C724.932 144.103 730.576 150.829 731.135 158.824L751.413 448.81C751.963 456.68 747.464 464.018 740.235 467.109L739.888 467.253L470.362 576.149C463.047 579.104 454.678 577.092 449.504 571.173L449.26 570.887L262.406 348.203Z" stroke="url(#paint4_linear_15_91175)" stroke-width="3"/>
<path opacity="0.0606061" d="M259.436 344.62C254.471 338.488 253.948 329.897 258.097 323.218L258.298 322.901L416.301 79.5985C420.598 72.9817 428.608 69.8292 436.241 71.7111L436.604 71.8045L716.825 146.889C724.567 148.964 730.092 155.787 730.512 163.791L745.695 453.499C746.108 461.377 741.48 468.636 734.199 471.601L733.85 471.738L463.012 575.703C455.647 578.53 447.314 576.373 442.245 570.363L442.005 570.074L259.436 344.62Z" stroke="url(#paint5_linear_15_91175)" stroke-width="3"/>
<path opacity="0.0707071" d="M256.547 341.046C251.69 334.829 251.317 326.229 255.581 319.624L255.788 319.311L417.684 79.2903C422.096 72.7497 430.16 69.7373 437.76 71.7521L438.121 71.8519L716.423 151.654C724.127 153.863 729.533 160.782 729.812 168.792L739.916 458.133C740.192 466.018 735.439 473.195 728.106 476.031L727.755 476.163L455.697 575.184C448.284 577.882 439.99 575.579 435.026 569.483L434.792 569.189L256.547 341.046Z" stroke="url(#paint6_linear_15_91175)" stroke-width="3"/>
<path opacity="0.0808081" d="M253.738 337.485C248.99 331.184 248.767 322.579 253.146 316.05L253.359 315.74L419.081 79.0629C423.607 72.6003 431.722 69.7292 439.285 71.8762L439.645 71.9823L715.95 156.457C723.614 158.8 728.898 165.813 729.038 173.826L734.081 462.712C734.219 470.6 729.341 477.693 721.96 480.402L721.607 480.527L448.418 574.593C440.958 577.162 432.706 574.715 427.849 568.532L427.62 568.235L253.738 337.485Z" stroke="url(#paint7_linear_15_91175)" stroke-width="3"/>
<path opacity="0.0909091" d="M251.009 333.936C246.372 327.553 246.299 318.946 250.791 312.494L251.009 312.188L420.492 78.9146C425.129 72.5319 433.293 69.803 440.817 72.0815L441.176 72.1938L715.405 161.296C723.028 163.773 728.188 170.876 728.188 178.891V467.233C728.188 475.122 723.188 482.129 715.761 484.708L715.405 484.828L441.176 573.93C433.672 576.368 425.463 573.778 420.715 567.511L420.492 567.209L251.009 333.936Z" stroke="url(#paint8_linear_15_91175)" stroke-width="3"/>
<path opacity="0.10101" d="M248.358 330.401C243.833 323.938 243.911 315.33 248.515 308.958L248.738 308.656L421.913 78.8453C426.661 72.5446 434.87 69.9586 442.354 72.368L442.71 72.4866L714.788 166.17C722.366 168.78 727.402 175.972 727.262 183.985L722.24 471.695C722.102 479.584 716.98 486.502 709.509 488.951L709.152 489.064L433.971 573.195C426.426 575.502 418.264 572.769 413.626 566.42L413.407 566.115L248.358 330.401Z" stroke="url(#paint9_linear_15_91175)" stroke-width="3"/>
<path opacity="0.111111" d="M245.787 326.882C241.375 320.341 241.603 311.737 246.318 305.445L246.546 305.147L423.343 78.8562C428.201 72.6393 436.455 70.1976 443.896 72.7377L444.249 72.8624L714.098 171.079C721.629 173.82 726.539 181.1 726.259 189.109L716.237 476.1C715.962 483.985 710.719 490.813 703.207 493.132L702.848 493.238L426.805 572.392C419.221 574.567 411.108 571.691 406.581 565.263L406.368 564.954L245.787 326.882Z" stroke="url(#paint10_linear_15_91175)" stroke-width="3"/>
<path opacity="0.121212" d="M243.294 323.379C238.997 316.762 239.375 308.163 244.199 301.954L244.432 301.661L424.782 78.9464C429.747 72.8152 438.043 70.5181 445.438 73.1875L445.789 73.3184L713.333 176.019C720.816 178.891 725.597 186.255 725.178 194.259L710.18 480.444C709.767 488.323 704.406 495.058 696.854 497.245L696.493 497.346L419.679 571.517C412.059 573.559 403.997 570.543 399.583 564.037L399.376 563.724L243.294 323.379Z" stroke="url(#paint11_linear_15_91175)" stroke-width="3"/>
<path opacity="0.131313" d="M240.879 319.895C236.698 313.205 237.226 304.613 242.158 298.49L242.396 298.2L426.227 79.1178C431.298 73.0741 439.633 70.9222 446.98 73.7202L447.33 73.8573L712.496 180.991C719.927 183.994 724.58 191.44 724.021 199.435L704.071 484.728C703.521 492.599 698.043 499.24 690.454 501.295L690.091 501.389L412.596 570.576C404.941 572.485 396.932 569.328 392.633 562.745L392.431 562.43L240.879 319.895Z" stroke="url(#paint12_linear_15_91175)" stroke-width="3"/>
<path opacity="0.141414" d="M238.542 316.431C234.478 309.668 235.156 301.087 240.194 295.051L240.437 294.765L427.679 79.3685C432.855 73.4145 441.225 71.4082 448.522 74.3339L448.869 74.477L711.584 185.993C718.962 189.124 723.484 196.65 722.785 204.634L697.911 488.952C697.223 496.811 691.631 503.355 684.007 505.277L683.643 505.365L405.554 569.567C397.867 571.342 389.916 568.045 385.732 561.389L385.535 561.069L238.542 316.431Z" stroke="url(#paint13_linear_15_91175)" stroke-width="3"/>
<path opacity="0.151515" d="M236.281 312.987C232.337 306.154 233.164 297.586 238.306 291.639L238.555 291.358L429.133 79.6983C434.412 73.8354 442.817 71.9745 450.062 75.0274L450.406 75.1764L710.598 191.022C717.92 194.282 722.31 201.885 721.472 209.856L691.701 493.112C690.876 500.958 685.17 507.403 677.515 509.192L677.149 509.273L398.557 568.49C390.84 570.131 382.947 566.695 378.88 559.967L378.689 559.644L236.281 312.987Z" stroke="url(#paint14_linear_15_91175)" stroke-width="3"/>
<path opacity="0.161616" d="M234.097 309.565C230.272 302.665 231.249 294.113 236.494 288.256L236.748 287.979L430.59 80.1082C435.971 74.3382 444.407 72.6245 451.598 75.8032L451.939 75.9583L709.537 196.079C716.8 199.466 721.057 207.145 720.081 215.099L685.442 497.209C684.481 505.04 678.663 511.384 670.977 513.039L670.61 513.114L391.604 567.348C383.859 568.853 376.028 565.281 372.079 558.483L371.893 558.157L234.097 309.565Z" stroke="url(#paint15_linear_15_91175)" stroke-width="3"/>
<path opacity="0.171717" d="M231.989 306.168C228.285 299.202 229.411 290.668 234.757 284.904L235.016 284.632L432.048 80.5979C437.528 74.9228 445.993 73.3566 453.127 76.6603L453.466 76.8212L708.4 201.161C715.603 204.674 719.725 212.427 718.61 220.363L679.135 501.244C678.037 509.056 672.11 515.298 664.396 516.818L664.027 516.888L384.696 566.141C376.927 567.511 369.158 563.803 365.329 556.936L365.149 556.607L231.989 306.168Z" stroke="url(#paint16_linear_15_91175)" stroke-width="3"/>
<path opacity="0.181818" d="M229.956 302.795C226.375 295.766 227.649 287.253 233.096 281.583L233.358 281.315L433.507 81.1666C439.085 75.5882 447.575 74.1698 454.651 77.5973L454.987 77.7643L707.188 206.267C714.329 209.906 718.315 217.729 717.061 225.645L672.782 505.213C671.548 513.005 665.513 519.142 657.774 520.528L657.404 520.591L377.837 564.87C370.045 566.104 362.342 562.261 358.632 555.329L358.459 554.997L229.956 302.795Z" stroke="url(#paint17_linear_15_91175)" stroke-width="3"/>
<path opacity="0.191919" d="M227.998 299.449C224.54 292.358 225.963 283.868 231.507 278.294L231.775 278.031L434.962 81.8147C440.638 76.3344 449.151 75.0645 456.165 78.6149L456.499 78.7878L705.9 211.397C712.977 215.159 716.826 223.051 715.434 230.944L666.384 509.117C665.014 516.887 658.873 522.918 651.111 524.168L650.74 524.225L371.025 563.536C363.212 564.634 355.578 560.657 351.99 553.661L351.822 553.326L227.998 299.449Z" stroke="url(#paint18_linear_15_91175)" stroke-width="3"/>
<path opacity="0.20202" d="M226.114 296.128C222.78 288.978 224.351 280.515 229.992 275.038L230.264 274.78L436.415 82.5401C442.185 77.1595 450.72 76.0383 457.672 79.7111L458.001 79.8895L704.537 216.546C711.546 220.432 715.257 228.389 713.728 236.257L659.943 512.955C658.438 520.699 652.192 526.622 644.409 527.737L644.037 527.787L364.261 562.139C356.431 563.1 348.868 558.99 345.402 551.933L345.24 551.595L226.114 296.128Z" stroke="url(#paint19_linear_15_91175)" stroke-width="3"/>
<path opacity="0.212121" d="M224.304 292.838C221.095 285.631 222.813 277.196 228.549 271.819L228.826 271.566L437.863 83.3465C443.726 78.0675 452.28 77.0955 459.166 80.8889L459.492 81.0731L703.095 221.717C710.036 225.725 713.608 233.746 711.941 241.585L653.458 516.728C651.818 524.445 645.47 530.258 637.669 531.236L637.296 531.28L357.548 560.683C349.702 561.507 342.211 557.266 338.87 550.15L338.714 549.808L224.304 292.838Z" stroke="url(#paint20_linear_15_91175)" stroke-width="3"/>
<path opacity="0.222222" d="M222.566 289.577C219.483 282.315 221.349 273.911 227.177 268.635L227.458 268.386L439.305 84.2297C445.26 79.0538 453.828 78.2314 460.648 82.1442L460.971 82.3341L701.579 226.906C708.449 231.034 711.879 239.116 710.076 246.925L646.932 520.432C645.158 528.119 638.709 533.82 630.892 534.663L630.519 534.7L350.886 559.165C343.026 559.852 335.611 555.481 332.394 548.308L332.244 547.963L222.566 289.577Z" stroke="url(#paint21_linear_15_91175)" stroke-width="3"/>
<path opacity="0.232323" d="M220.9 286.348C217.945 279.033 219.957 270.663 225.876 265.49L226.162 265.246L440.741 85.1925C446.784 80.1213 455.366 79.4484 462.115 83.4796L462.436 83.6752L699.985 232.112C706.782 236.36 710.071 244.5 708.132 252.277L640.367 524.07C638.458 531.725 631.911 537.314 624.08 538.02L623.707 538.049L344.276 557.589C336.406 558.139 329.068 553.64 325.977 546.411L325.833 546.064L220.9 286.348Z" stroke="url(#paint22_linear_15_91175)" stroke-width="3"/>
<path opacity="0.242424" d="M219.306 283.151C216.479 275.786 218.637 267.452 224.646 262.383L224.935 262.144L442.167 86.233C448.298 81.2679 456.891 80.7448 463.569 84.8936L463.885 85.0946L698.315 237.335C705.037 241.7 708.184 249.897 706.109 257.639L633.763 527.64C631.721 535.26 625.077 540.734 617.235 541.303L616.861 541.326L337.719 555.955C329.84 556.368 322.582 551.741 319.617 544.46L319.479 544.11L219.306 283.151Z" stroke="url(#paint23_linear_15_91175)" stroke-width="3"/>
<path opacity="0.252525" d="M217.783 279.987C215.085 272.573 217.387 264.279 223.484 259.315L223.778 259.081L443.583 87.3503C449.8 82.4929 458.4 82.12 465.005 86.3846L465.318 86.5911L696.568 242.571C703.213 247.053 706.216 255.304 704.007 263.008L627.121 531.14C624.946 538.723 618.208 544.08 610.358 544.513L609.983 544.529L331.215 554.264C323.33 554.539 316.154 549.786 313.317 542.454L313.185 542.102L217.783 279.987Z" stroke="url(#paint24_linear_15_91175)" stroke-width="3"/>
<path opacity="0.262626" d="M216.329 276.857C213.761 269.398 216.208 261.145 222.39 256.288L222.688 256.06L444.987 88.5446C451.288 83.7966 459.894 83.5738 466.423 87.953L466.732 88.1649L694.743 247.82C701.308 252.417 704.167 260.719 701.824 268.383L620.442 534.57C618.135 542.115 611.305 547.353 603.448 547.649L603.073 547.659L324.766 552.516C316.878 552.654 309.785 547.777 307.076 540.396L306.951 540.042L216.329 276.857Z" stroke="url(#paint25_linear_15_91175)" stroke-width="3"/>
<path opacity="0.272727" d="M214.945 273.765C212.507 266.261 215.098 258.053 221.364 253.305L221.666 253.081L446.38 89.8162C452.763 85.1792 461.37 85.1071 467.822 89.5993L468.128 89.8169L692.842 253.081C699.326 257.792 702.039 266.142 699.562 273.765L613.729 537.932C611.291 545.435 604.37 550.554 596.51 550.712L596.135 550.715L318.373 550.715C310.484 550.715 303.477 545.715 300.897 538.288L300.779 537.932L214.945 273.765Z" stroke="url(#paint26_linear_15_91175)" stroke-width="3"/>
<path opacity="0.282828" d="M213.629 270.709C211.323 263.164 214.056 255.002 220.404 250.364L220.71 250.146L447.758 91.1646C454.221 86.6398 462.827 86.718 469.2 91.3221L469.502 91.5449L690.864 258.352C697.264 263.176 699.831 271.572 697.222 279.15L606.983 541.223C604.415 548.683 597.405 553.68 589.543 553.701L589.168 553.698L312.036 548.86C304.148 548.722 297.23 543.6 294.781 536.13L294.667 535.773L213.629 270.709Z" stroke="url(#paint27_linear_15_91175)" stroke-width="3"/>
<path opacity="0.292929" d="M212.381 267.692C210.207 260.108 213.082 251.995 219.51 247.468L219.82 247.256L449.12 92.5898C455.661 88.1782 464.266 88.4067 470.557 93.1218L470.855 93.3495L688.808 263.633C695.124 268.568 697.544 277.008 694.803 284.539L600.205 544.445C597.506 551.858 590.411 556.732 582.549 556.616L582.175 556.606L305.756 546.953C297.872 546.678 291.044 541.436 288.726 533.924L288.618 533.564L212.381 267.692Z" stroke="url(#paint28_linear_15_91175)" stroke-width="3"/>
<path opacity="0.30303" d="M211.2 264.713C209.158 257.092 212.174 249.031 218.681 244.617L218.994 244.41L450.465 94.0893C457.082 89.7924 465.682 90.1712 471.89 94.9953L472.183 95.2282L686.674 268.92C692.903 273.963 695.175 282.444 692.303 289.927L593.394 547.593C590.567 554.959 583.388 559.708 575.529 559.454L575.155 559.438L299.535 544.993C291.656 544.58 284.921 539.22 282.734 531.669L282.633 531.308L211.2 264.713Z" stroke="url(#paint29_linear_15_91175)" stroke-width="3"/>
<path opacity="0.313131" d="M210.084 261.776C208.176 254.121 211.333 246.113 217.915 241.813L218.231 241.612L451.792 95.6654C458.483 91.4847 467.075 92.0129 473.198 96.9443L473.488 97.1823L684.465 274.214C690.604 279.366 692.728 287.885 689.726 295.316L586.555 550.672C583.6 557.987 576.339 562.61 568.486 562.219L568.112 562.197L293.371 542.986C285.501 542.435 278.861 536.958 276.806 529.369L276.711 529.006L210.084 261.776Z" stroke="url(#paint30_linear_15_91175)" stroke-width="3"/>
<path opacity="0.323232" d="M209.034 258.879C207.259 251.192 210.555 243.24 217.212 239.056L217.532 238.86L453.101 97.3151C459.864 93.252 468.444 93.9296 474.481 98.967L474.767 99.2104L682.178 279.511C688.226 284.769 690.202 293.324 687.07 300.701L579.688 553.677C576.606 560.94 569.265 565.435 561.42 564.908L561.046 564.878L287.269 540.927C279.409 540.239 272.865 534.646 270.943 527.023L270.856 526.659L209.034 258.879Z" stroke="url(#paint31_linear_15_91175)" stroke-width="3"/>
<path opacity="0.333333" d="M208.048 256.026C206.408 248.309 209.842 240.416 216.57 236.349L216.894 236.158L454.388 99.0399C461.221 95.0954 469.788 95.9228 475.736 101.065L476.017 101.313L679.814 284.813C685.77 290.176 687.595 298.764 684.336 306.085L572.794 556.612C569.585 563.82 562.167 568.186 554.333 567.522L553.96 567.486L281.226 538.821C273.38 537.996 266.935 532.29 265.146 524.634L265.064 524.269L208.048 256.026Z" stroke="url(#paint32_linear_15_91175)" stroke-width="3"/>
<path opacity="0.343434" d="M207.125 253.215C205.619 245.471 209.191 237.639 215.989 233.69L216.316 233.505L455.653 100.838C462.554 97.0128 471.106 97.9897 476.963 103.235L477.239 103.488L677.373 290.116C683.234 295.582 684.91 304.2 681.523 311.464L565.874 559.473C562.54 566.623 555.046 570.86 547.225 570.059L546.853 570.016L275.244 536.668C267.414 535.706 261.069 529.888 259.414 522.202L259.339 521.835L207.125 253.215Z" stroke="url(#paint33_linear_15_91175)" stroke-width="3"/>
<path opacity="0.353535" d="M206.264 250.451C204.894 242.681 208.602 234.913 215.468 231.083L215.798 230.904L456.895 102.71C463.861 99.0058 472.395 100.132 478.16 105.479L478.432 105.736L674.854 295.42C680.619 300.988 682.144 309.634 678.631 316.837L558.929 562.262C555.471 569.353 547.905 573.458 540.099 572.52L539.727 572.472L269.324 534.47C261.512 533.372 255.27 527.444 253.749 519.73L253.68 519.362L206.264 250.451Z" stroke="url(#paint34_linear_15_91175)" stroke-width="3"/>
<path opacity="0.363636" d="M205.465 247.731C204.231 239.939 208.074 232.236 215.006 228.527L215.339 228.353L458.113 104.653C465.142 101.072 473.655 102.347 479.325 107.793L479.594 108.056L672.26 300.722C677.927 306.389 679.301 315.061 675.662 322.202L551.962 564.977C548.381 572.007 540.744 575.979 532.956 574.905L532.585 574.851L263.468 532.227C255.675 530.993 249.537 524.957 248.152 517.218L248.089 516.848L205.465 247.731Z" stroke="url(#paint35_linear_15_91175)" stroke-width="3"/>
<path opacity="0.373737" d="M204.727 245.059C203.629 237.246 207.606 229.612 214.601 226.024L214.937 225.856L459.305 106.67C466.396 103.212 474.885 104.635 480.459 110.179L480.723 110.447L669.59 306.023C675.157 311.789 676.379 320.484 672.616 327.56L544.974 567.62C541.27 574.586 533.566 578.424 525.797 577.215L525.427 577.154L257.673 529.942C249.904 528.572 243.873 522.43 242.622 514.668L242.566 514.297L204.727 245.059Z" stroke="url(#paint36_linear_15_91175)" stroke-width="3"/>
<path opacity="0.383838" d="M204.049 242.433C203.087 234.603 207.196 227.039 214.254 223.574L214.592 223.412L460.47 108.757C467.62 105.423 476.084 106.994 481.56 112.635L481.819 112.907L666.843 311.32C672.309 317.182 673.379 325.897 669.493 332.906L537.966 570.188C534.141 577.088 526.37 580.791 518.624 579.446L518.255 579.379L251.943 527.613C244.199 526.108 238.275 519.862 237.16 512.08L237.111 511.707L204.049 242.433Z" stroke="url(#paint37_linear_15_91175)" stroke-width="3"/>
<path opacity="0.393939" d="M203.428 239.857C202.604 232.011 206.844 224.52 213.961 221.179L214.302 221.023L461.607 110.915C468.814 107.706 477.249 109.425 482.626 115.161L482.879 115.437L664.02 316.613C669.382 322.569 670.3 331.301 666.293 338.242L530.938 572.683C526.994 579.515 519.16 583.082 511.438 581.602L511.07 581.529L246.277 525.245C238.56 523.604 232.746 517.256 231.767 509.456L231.725 509.082L203.428 239.857Z" stroke="url(#paint38_linear_15_91175)" stroke-width="3"/>
<path opacity="0.40404" d="M202.866 237.329C202.178 229.47 206.549 222.054 213.723 218.837L214.067 218.688L462.714 113.143C469.976 110.06 478.38 111.926 483.656 117.754L483.905 118.035L661.12 321.897C666.378 327.946 667.143 336.693 663.015 343.563L523.893 575.102C519.829 581.864 511.935 585.294 504.24 583.68L503.874 583.6L240.676 522.835C232.989 521.061 227.287 514.612 226.444 506.796L226.408 506.422L202.866 237.329Z" stroke="url(#paint39_linear_15_91175)" stroke-width="3"/>
<path opacity="0.414141" d="M202.36 234.853C201.809 226.983 206.309 219.645 213.538 216.554L213.884 216.41L463.791 115.441C471.106 112.486 479.475 114.498 484.649 120.417L484.893 120.703L658.146 327.177C663.297 333.316 663.91 342.075 659.663 348.872L516.832 577.449C512.651 584.14 504.698 587.431 497.032 585.683L496.667 585.596L235.141 520.39C227.486 518.481 221.897 511.934 221.191 504.104L221.162 503.73L202.36 234.853Z" stroke="url(#paint40_linear_15_91175)" stroke-width="3"/>
<path opacity="0.424242" d="M201.909 232.429C201.497 224.55 206.123 217.292 213.405 214.327L213.754 214.189L464.836 117.808C472.201 114.981 480.534 117.138 485.604 123.147L485.843 123.437L655.096 332.446C660.14 338.675 660.599 347.443 656.234 354.165L509.756 579.721C505.459 586.338 497.449 589.491 489.816 587.609L489.453 587.515L229.671 517.907C222.051 515.865 216.578 509.221 216.008 501.38L215.985 501.005L201.909 232.429Z" stroke="url(#paint41_linear_15_91175)" stroke-width="3"/>
<path opacity="0.434343" d="M201.514 230.056C201.238 222.171 205.991 214.995 213.324 212.158L213.675 212.026L465.848 120.242C473.262 117.544 481.557 119.847 486.52 125.944L486.754 126.237L651.972 337.705C656.906 344.021 657.213 352.796 652.731 359.44L502.667 581.919C498.256 588.459 490.192 591.472 482.592 589.457L482.231 589.357L224.269 515.387C216.685 513.213 211.328 506.475 210.896 498.625L210.879 498.249L201.514 230.056Z" stroke="url(#paint42_linear_15_91175)" stroke-width="3"/>
<path opacity="0.444444" d="M201.172 227.737C201.034 219.848 205.911 212.756 213.292 210.047L213.646 209.922L466.827 122.744C474.287 120.175 482.539 122.623 487.396 128.806L487.624 129.103L648.772 342.953C653.596 349.354 653.749 358.133 649.152 364.698L495.565 584.042C491.04 590.505 482.925 593.376 475.362 591.229L475.002 591.122L218.933 512.834C211.388 510.527 206.15 503.697 205.855 495.84L205.845 495.465L201.172 227.737Z" stroke="url(#paint43_linear_15_91175)" stroke-width="3"/>
<path opacity="0.454545" d="M200.882 225.472C200.882 217.582 205.882 210.576 213.309 207.996L213.665 207.877L467.77 125.313C475.273 122.875 483.482 125.466 488.23 131.733L488.453 132.034L645.499 348.188C650.21 354.672 650.21 363.453 645.499 369.937L488.454 586.091C483.816 592.474 475.652 595.203 468.128 592.924L467.77 592.812L213.665 510.248C206.161 507.81 201.043 500.889 200.885 493.029L200.881 492.654L200.882 225.472Z" stroke="url(#paint44_linear_15_91175)" stroke-width="3"/>
<path opacity="0.464646" d="M200.643 223.261C200.781 215.373 205.903 208.455 213.374 206.005L213.732 205.892L468.677 127.948C476.222 125.641 484.383 128.375 489.021 134.723L489.24 135.029L642.152 353.409C646.749 359.975 646.596 368.753 641.773 375.154L481.332 588.066C476.584 594.366 468.374 596.953 460.89 594.543L460.535 594.424L208.465 507.629C201.005 505.061 196.008 498.052 195.987 490.189L195.991 489.815L200.643 223.261Z" stroke="url(#paint45_linear_15_91175)" stroke-width="3"/>
<path opacity="0.474747" d="M200.455 221.106C200.731 213.221 205.973 206.393 213.485 204.075L213.845 203.968L469.547 130.646C477.13 128.472 485.243 131.348 489.769 137.776L489.983 138.085L638.732 358.614C643.214 365.259 642.907 374.034 637.973 380.349L474.203 589.965C469.346 596.182 461.092 598.624 453.651 596.084L453.298 595.959L203.333 504.98C195.92 502.281 191.046 495.186 191.163 487.325L191.172 486.95L200.455 221.106Z" stroke="url(#paint46_linear_15_91175)" stroke-width="3"/>
<path opacity="0.484848" d="M200.317 219.007C200.729 211.128 206.09 204.393 213.641 202.206L214.003 202.105L470.378 133.41C477.998 131.368 486.061 134.385 490.474 140.891L490.681 141.203L635.239 363.803C639.604 370.524 639.144 379.293 634.1 385.521L467.067 591.79C462.103 597.921 453.807 600.219 446.412 597.55L446.06 597.419L198.27 502.301C190.904 499.474 186.156 492.294 186.41 484.436L186.425 484.062L200.317 219.007Z" stroke="url(#paint47_linear_15_91175)" stroke-width="3"/>
<path opacity="0.494949" d="M200.226 216.965C200.776 209.094 206.253 202.454 213.842 200.399L214.205 200.305L471.169 136.236C478.824 134.327 486.833 137.485 491.132 144.067L491.334 144.383L631.672 368.972C635.919 375.769 635.307 384.528 630.155 390.668L459.926 593.539C454.854 599.583 446.52 601.736 439.172 598.938L438.823 598.801L193.276 499.594C185.961 496.638 181.339 489.377 181.729 481.524L181.752 481.15L200.226 216.965Z" stroke="url(#paint48_linear_15_91175)" stroke-width="3"/>
<path opacity="0.50505" d="M200.182 214.982C200.87 207.122 206.462 200.578 214.085 198.656L214.45 198.568L471.921 139.126C479.608 137.352 487.559 140.648 491.743 147.304L491.94 147.624L628.034 374.125C632.162 380.995 631.397 389.741 626.139 395.79L452.78 595.216C447.604 601.17 439.234 603.178 431.936 600.252L431.59 600.109L188.353 496.861C181.09 493.779 176.595 486.437 177.122 478.593L177.152 478.22L200.182 214.982Z" stroke="url(#paint49_linear_15_91175)" stroke-width="3"/>
<path opacity="0.515152" d="M200.184 213.057C201.009 205.211 206.714 198.765 214.37 196.976L214.736 196.895L472.63 142.078C480.347 140.438 488.24 143.872 492.307 150.6L492.498 150.923L624.325 379.256C628.332 386.197 627.415 394.928 622.052 400.884L445.632 596.819C440.353 602.682 431.949 604.542 424.703 601.489L424.36 601.34L183.498 494.102C176.291 490.893 171.925 483.475 172.589 475.641L172.624 475.268L200.184 213.057Z" stroke="url(#paint50_linear_15_91175)" stroke-width="3"/>
<path opacity="0.525253" d="M200.23 211.191C201.192 203.36 207.009 197.015 214.695 195.36L215.063 195.285L473.297 145.089C481.041 143.584 488.873 147.156 492.822 153.955L493.007 154.28L620.545 384.365C624.43 391.375 623.36 400.089 617.895 405.95L438.483 598.347C433.102 604.116 424.667 605.829 417.476 602.651L417.135 602.496L178.714 491.319C171.564 487.985 167.328 480.491 168.129 472.67L168.17 472.297L200.23 211.191Z" stroke="url(#paint51_linear_15_91175)" stroke-width="3"/>
<path opacity="0.535354" d="M200.321 209.385C201.419 201.573 207.346 195.33 215.059 193.81L215.428 193.741L473.92 148.162C481.69 146.792 489.458 150.5 493.288 157.366L493.467 157.695L616.694 389.452C620.456 396.528 619.235 405.223 613.668 410.988L431.334 599.8C425.853 605.475 417.389 607.041 410.255 603.738L409.917 603.576L174 488.513C166.909 485.054 162.805 477.488 163.742 469.682L163.79 469.31L200.321 209.385Z" stroke="url(#paint52_linear_15_91175)" stroke-width="3"/>
<path opacity="0.545455" d="M200.453 207.64C201.688 199.848 207.723 193.71 215.461 192.324L215.832 192.262L474.499 151.292C482.291 150.058 489.994 153.901 493.703 160.833L493.877 161.166L612.773 394.513C616.412 401.654 615.038 410.326 609.371 415.993L424.185 601.179C418.606 606.758 410.116 608.176 403.041 604.748L402.705 604.582L169.357 485.685C162.328 482.103 158.356 474.466 159.429 466.678L159.484 466.307L200.453 207.64Z" stroke="url(#paint53_linear_15_91175)" stroke-width="3"/>
<path opacity="0.555556" d="M200.627 205.956C201.997 198.186 208.138 192.154 215.9 190.904L216.271 190.848L475.033 154.482C482.845 153.384 490.479 157.36 494.067 164.356L494.235 164.692L608.783 399.55C612.297 406.753 610.772 415.4 605.007 420.967L417.04 602.485C411.365 607.965 402.851 609.235 395.837 605.684L395.503 605.512L164.786 482.837C157.82 479.133 153.981 471.428 155.19 463.66L155.252 463.29L200.627 205.956Z" stroke="url(#paint54_linear_15_91175)" stroke-width="3"/>
<path opacity="0.565657" d="M200.841 204.334C202.347 196.589 208.592 190.666 216.375 189.551L216.747 189.502L475.52 157.728C483.35 156.767 490.913 160.876 494.379 167.933L494.541 168.272L604.725 404.561C608.112 411.825 606.436 420.443 600.575 425.909L409.899 603.718C404.129 609.098 395.595 610.219 388.643 606.546L388.313 606.368L160.285 479.97C153.385 476.146 149.682 468.375 151.026 460.629L151.094 460.26L200.841 204.334Z" stroke="url(#paint55_linear_15_91175)" stroke-width="3"/>
<path opacity="0.575758" d="M201.094 202.773C202.734 195.056 209.082 189.243 216.883 188.264L217.256 188.221L475.959 161.03C483.805 160.205 491.296 164.446 494.638 171.563L494.794 171.904L600.598 409.543C603.858 416.865 602.032 425.453 596.076 430.816L402.763 604.876C396.9 610.155 388.347 611.127 381.461 607.334L381.134 607.15L155.856 477.085C149.023 473.14 145.456 465.307 146.935 457.585L147.01 457.217L201.094 202.773Z" stroke="url(#paint56_linear_15_91175)" stroke-width="3"/>
<path opacity="0.585859" d="M201.384 201.277C203.159 193.59 209.608 187.888 217.424 187.045L217.798 187.009L476.35 164.388C484.21 163.701 491.626 168.072 494.843 175.246L494.992 175.589L596.403 414.497C599.535 421.875 597.56 430.43 591.511 435.688L395.633 605.962C389.678 611.138 381.11 611.961 374.291 608.047L373.967 607.858L151.498 474.184C144.735 470.121 141.305 462.226 142.919 454.532L143 454.165L201.384 201.277Z" stroke="url(#paint57_linear_15_91175)" stroke-width="3"/>
<path opacity="0.59596" d="M201.711 199.843C203.62 192.188 210.167 186.6 217.997 185.893L218.371 185.864L476.693 167.8C484.563 167.249 491.901 171.749 494.992 178.978L495.136 179.324L592.142 419.421C595.144 426.852 593.02 435.372 586.881 440.524L388.511 606.975C382.467 612.047 373.886 612.719 367.136 608.688L366.816 608.493L147.211 471.268C140.521 467.087 137.229 459.134 138.977 451.469L139.064 451.103L201.711 199.843Z" stroke="url(#paint58_linear_15_91175)" stroke-width="3"/>
<path opacity="0.606061" d="M202.073 198.474C204.115 190.853 210.759 185.38 218.6 184.81L218.975 184.787L476.986 171.266C484.864 170.853 492.122 175.48 495.087 182.761L495.225 183.111L587.815 424.315C590.687 431.797 588.415 440.278 582.186 445.322L381.399 607.916C375.267 612.881 366.675 613.405 359.997 609.256L359.68 609.055L142.997 468.339C136.381 464.042 133.228 456.032 135.11 448.399L135.204 448.035L202.073 198.474Z" stroke="url(#paint59_linear_15_91175)" stroke-width="3"/>
<path opacity="0.616162" d="M202.469 197.169C204.644 189.585 211.382 184.228 219.232 183.796L219.607 183.779L477.228 174.782C485.112 174.507 492.289 179.261 495.125 186.593L495.257 186.944L583.423 429.176C586.164 436.707 583.743 445.147 577.428 450.081L374.297 608.785C368.08 613.642 359.479 614.015 352.874 609.751L352.562 609.544L138.855 465.396C132.314 460.985 129.302 452.921 131.316 445.322L131.416 444.96L202.469 197.169Z" stroke="url(#paint60_linear_15_91175)" stroke-width="3"/>
<path opacity="0.626263" d="M202.898 195.929C205.205 188.384 212.035 183.146 219.892 182.851L220.267 182.841L477.418 178.352C485.306 178.214 492.398 183.092 495.106 190.473L495.232 190.826L578.965 434.004C581.574 441.582 579.007 449.979 572.607 454.802L367.206 609.582C360.905 614.33 352.3 614.553 345.77 610.174L345.461 609.962L134.784 462.443C128.321 457.918 125.45 449.804 127.597 442.24L127.703 441.881L202.898 195.929Z" stroke="url(#paint61_linear_15_91175)" stroke-width="3"/>
<path opacity="0.636364" d="M203.358 194.755C205.796 187.252 212.717 182.133 220.578 181.975L220.953 181.972L477.555 181.971C485.444 181.971 492.45 186.972 495.029 194.399L495.149 194.755L574.443 438.797C576.92 446.42 574.207 454.77 567.723 459.481L360.128 610.308C353.745 614.945 345.137 615.018 338.685 610.525L338.38 610.308L130.785 459.481C124.402 454.843 121.673 446.68 123.952 439.155L124.063 438.797L203.358 194.755Z" stroke="url(#paint62_linear_15_91175)" stroke-width="3"/>
<path opacity="0.646465" d="M203.849 193.646C206.418 186.186 213.427 181.189 221.289 181.169L221.664 181.172L477.64 185.64C485.528 185.777 492.445 190.9 494.894 198.37L495.008 198.728L569.859 443.555C572.202 451.22 569.344 459.521 562.778 464.118L353.064 610.962C346.602 615.487 337.994 615.41 331.621 610.805L331.319 610.582L126.858 456.509C120.557 451.761 117.97 443.551 120.38 436.067L120.499 435.712L203.849 193.646Z" stroke="url(#paint63_linear_15_91175)" stroke-width="3"/>
<path opacity="0.656566" d="M204.369 192.603C207.067 185.19 214.163 180.316 222.024 180.432L222.399 180.442L477.67 189.356C485.554 189.632 492.382 194.873 494.7 202.385L494.808 202.745L565.212 448.277C567.421 455.981 564.418 464.232 557.774 468.714L346.016 611.546C339.476 615.958 330.87 615.73 324.579 611.015L324.281 610.787L123.002 453.531C116.785 448.674 114.344 440.42 116.883 432.979L117.008 432.626L204.369 192.603Z" stroke="url(#paint64_linear_15_91175)" stroke-width="3"/>
<path opacity="0.666667" d="M204.917 191.626C207.744 184.261 214.923 179.512 222.781 179.765L223.156 179.782L477.645 193.118C485.524 193.531 492.259 198.892 494.447 206.444L494.547 206.805L560.504 452.961C562.578 460.702 559.431 468.899 552.71 473.264L338.985 612.059C332.368 616.356 323.768 615.978 317.56 611.154L317.266 610.921L119.219 450.546C113.088 445.581 110.791 437.285 113.46 429.89L113.59 429.539L204.917 191.626Z" stroke="url(#paint65_linear_15_91175)" stroke-width="3"/>
<path opacity="0.676768" d="M205.491 190.717C208.446 183.403 215.707 178.78 223.56 179.17L223.934 179.193L477.565 196.928C485.436 197.478 492.076 202.956 494.131 210.545L494.226 210.907L555.734 457.606C557.673 465.382 554.384 473.523 547.587 477.77L331.97 612.502C325.28 616.683 316.688 616.155 310.565 611.224L310.275 610.985L115.507 447.556C109.464 442.485 107.312 434.151 110.11 426.803L110.246 426.454L205.491 190.717Z" stroke="url(#paint66_linear_15_91175)" stroke-width="3"/>
<path opacity="0.686869" d="M206.09 189.875C209.173 182.613 216.513 178.117 224.358 178.645L224.732 178.674L477.429 200.782C485.289 201.469 491.833 207.062 493.755 214.685L493.843 215.05L550.904 462.212C552.707 470.021 549.277 478.103 542.407 482.231L324.976 612.877C318.213 616.94 309.632 616.262 303.596 611.225L303.31 610.981L111.868 444.563C105.914 439.387 103.907 431.017 106.833 423.719L106.976 423.373L206.09 189.875Z" stroke="url(#paint67_linear_15_91175)" stroke-width="3"/>
<path opacity="0.69697" d="M206.714 189.1C209.923 181.893 217.341 177.526 225.175 178.191L225.548 178.226L477.237 204.68C485.083 205.505 491.528 211.21 493.317 218.865L493.399 219.232L546.016 466.777C547.682 474.616 544.112 482.637 537.171 486.644L318.001 613.182C311.169 617.127 302.601 616.299 296.653 611.157L296.372 610.909L108.301 441.569C102.437 436.29 100.577 427.885 103.63 420.639L103.779 420.296L206.714 189.1Z" stroke="url(#paint68_linear_15_91175)" stroke-width="3"/>
<path opacity="0.707071" d="M207.36 188.394C210.695 181.244 218.188 177.007 226.009 177.808L226.382 177.851L476.987 208.621C484.817 209.583 491.162 215.4 492.817 223.085L492.893 223.453L541.069 471.302C542.598 479.169 538.888 487.126 531.879 491.012L311.048 613.421C304.147 617.245 295.595 616.268 289.739 611.023L289.462 610.77L104.804 438.574C99.0341 433.193 97.3211 424.758 100.5 417.567L100.655 417.226L207.36 188.394Z" stroke="url(#paint69_linear_15_91175)" stroke-width="3"/>
<path opacity="0.717172" d="M208.029 187.755C211.487 180.664 219.053 176.559 226.859 177.496L227.231 177.545L476.679 212.602C484.492 213.7 490.734 219.628 492.255 227.341L492.323 227.71L536.065 475.783C537.456 483.676 533.608 491.567 526.532 495.33L304.117 613.59C297.151 617.293 288.618 616.167 282.853 610.821L282.581 610.563L101.379 435.578C95.704 430.098 94.1385 421.634 97.4423 414.499L97.6029 414.161L208.029 187.755Z" stroke="url(#paint70_linear_15_91175)" stroke-width="3"/>
<path opacity="0.727273" d="M208.717 187.185C212.298 180.156 219.935 176.183 227.723 177.256L228.094 177.312L476.312 216.625C484.104 217.859 490.242 223.895 491.628 231.634L491.69 232.003L531.004 480.221C532.257 488.137 528.272 495.96 521.131 499.598L297.21 613.692C290.18 617.274 281.668 615.999 275.998 610.552L275.73 610.289L98.0254 432.585C92.4469 427.007 91.0286 418.517 94.4561 411.441L94.6234 411.105L208.717 187.185Z" stroke="url(#paint71_linear_15_91175)" stroke-width="3"/>
<path opacity="0.737374" d="M209.424 186.683C213.128 179.717 220.833 175.878 228.601 177.088L228.971 177.149L475.886 220.687C483.656 222.057 489.687 228.198 490.938 235.96L490.994 236.332L525.888 484.615C527.003 492.551 522.881 500.304 515.678 503.817L290.328 613.728C283.237 617.186 274.748 615.763 269.174 610.218L268.91 609.951L94.7433 429.596C89.2628 423.921 87.9925 415.406 91.5431 408.392L91.7163 408.059L209.424 186.683Z" stroke="url(#paint72_linear_15_91175)" stroke-width="3"/>
<path opacity="0.747475" d="M210.149 186.251C213.974 179.35 221.744 175.647 229.491 176.991L229.86 177.06L475.4 224.788C483.144 226.293 489.068 232.538 490.183 240.321L490.232 240.693L520.717 488.965C521.693 496.92 517.436 504.599 510.173 507.986L283.472 613.698C276.322 617.033 267.859 615.461 262.382 609.82L262.123 609.549L91.5312 426.611C86.1508 420.841 85.0297 412.306 88.702 405.355L88.881 405.025L210.149 186.251Z" stroke="url(#paint73_linear_15_91175)" stroke-width="3"/>
<path opacity="0.757576" d="M210.891 185.886C214.836 179.053 222.669 175.486 230.391 176.965L230.759 177.04L474.854 228.924C482.571 230.564 488.385 236.912 489.363 244.713L489.406 245.086L515.492 493.267C516.329 501.238 511.939 508.842 504.617 512.102L276.643 613.602C269.436 616.811 261.002 615.092 255.624 609.356L255.37 609.081L88.39 423.629C83.111 417.767 82.139 409.214 85.9322 402.328L86.1169 402.001L210.891 185.886Z" stroke="url(#paint74_linear_15_91175)" stroke-width="3"/>
<path opacity="0.767677" d="M211.648 185.59C215.711 178.828 223.606 175.398 231.301 177.012L231.667 177.093L474.246 233.096C481.934 234.871 487.636 241.32 488.478 249.137L488.515 249.51L510.214 497.524C510.912 505.508 506.39 513.034 499.012 516.165L269.843 613.442C262.58 616.525 254.178 614.659 248.901 608.83L248.652 608.55L85.319 420.656C80.1432 414.702 79.3205 406.134 83.2333 399.315L83.4237 398.991L211.648 185.59Z" stroke="url(#paint75_linear_15_91175)" stroke-width="3"/>
<path opacity="0.777778" d="M212.419 185.365C216.599 178.674 224.553 175.382 232.218 177.13L232.583 177.218L473.578 237.304C481.233 239.213 486.821 245.76 487.527 253.591L487.557 253.964L504.883 501.732C505.442 509.727 500.789 517.173 493.358 520.175L263.071 613.217C255.756 616.173 247.387 614.161 242.213 608.241L241.969 607.956L82.3181 417.691C77.247 411.648 76.5739 403.066 80.6052 396.316L80.8012 395.996L212.419 185.365Z" stroke="url(#paint76_linear_15_91175)" stroke-width="3"/>
<path opacity="0.787879" d="M213.202 185.208C217.499 178.592 225.509 175.439 233.142 177.321L233.506 177.415L472.848 241.546C480.469 243.588 485.941 250.232 486.511 258.073L486.534 258.448L499.502 505.893C499.922 513.896 495.14 521.26 487.657 524.132L256.33 612.93C248.965 615.758 240.632 613.6 235.562 607.59L235.323 607.302L79.3873 414.737C74.4223 408.605 73.8987 400.013 78.0473 393.334L78.2484 393.019L213.202 185.208Z" stroke="url(#paint77_linear_15_91175)" stroke-width="3"/>
<path opacity="0.79798" d="M213.997 185.12C218.409 178.579 226.472 175.567 234.072 177.582L234.434 177.682L472.055 245.818C479.639 247.993 484.995 254.731 485.427 262.581L485.444 262.956L494.072 510.003C494.351 518.012 489.441 525.292 481.91 528.033L249.621 612.579C242.207 615.278 233.912 612.975 228.948 606.878L228.715 606.585L76.5254 411.79C71.6682 405.573 71.2952 396.974 75.5595 390.369L75.7657 390.056L213.997 185.12Z" stroke="url(#paint78_linear_15_91175)" stroke-width="3"/>
<path opacity="0.808081" d="M214.802 185.102C219.328 178.639 227.442 175.768 235.006 177.915L235.366 178.022L471.2 250.123C478.745 252.43 483.982 259.261 484.277 267.117L484.287 267.492L488.592 514.064C488.732 522.077 483.695 529.27 476.118 531.879L242.944 612.167C235.484 614.736 227.231 612.288 222.374 606.106L222.146 605.809L73.7329 408.857C68.9849 402.556 68.7619 393.952 73.141 387.422L73.3526 387.113L214.802 185.102Z" stroke="url(#paint79_linear_15_91175)" stroke-width="3"/>
<path opacity="0.818182" d="M215.616 185.152C220.254 178.77 228.417 176.041 235.942 178.319L236.3 178.432L470.281 254.456C477.784 256.894 482.902 263.816 483.059 271.676L483.063 272.051L483.064 518.072C483.064 526.087 477.903 533.19 470.28 535.667L236.3 611.692C228.796 614.13 220.587 611.539 215.839 605.273L215.616 604.971L71.0086 405.936C66.3713 399.553 66.2985 390.946 70.7909 384.493L71.0079 384.188L215.616 185.152Z" stroke="url(#paint80_linear_15_91175)" stroke-width="3"/>
<path opacity="0.828283" d="M216.438 185.273C221.186 178.972 229.396 176.386 236.88 178.795L237.236 178.914L469.298 258.819C476.758 261.387 481.755 268.397 481.776 276.259L481.773 276.634L477.489 522.031C477.349 530.044 472.065 537.056 464.4 539.4L229.691 611.158C222.146 613.464 213.984 610.731 209.346 604.382L209.128 604.077L68.352 403.029C63.8271 396.567 63.9051 387.959 68.5095 381.586L68.7317 381.284L216.438 185.273Z" stroke="url(#paint81_linear_15_91175)" stroke-width="3"/>
<path opacity="0.838384" d="M217.266 185.462C222.124 179.245 230.378 176.802 237.818 179.342L238.172 179.467L468.252 263.21C475.666 265.908 480.539 273.003 480.423 280.864L480.414 281.239L471.868 525.936C471.589 533.946 466.183 540.865 458.479 543.074L223.118 610.563C215.534 612.737 207.42 609.862 202.894 603.433L202.681 603.124L65.7646 400.138C61.3529 393.598 61.5816 384.993 66.2963 378.701L66.5238 378.403L217.266 185.462Z" stroke="url(#paint82_linear_15_91175)" stroke-width="3"/>
<path opacity="0.848485" d="M218.1 185.721C223.064 179.59 231.36 177.292 238.755 179.961L239.107 180.092L467.141 267.626C474.507 270.454 479.256 277.633 479.002 285.492L478.987 285.866L466.203 529.79C465.783 537.793 460.257 544.617 452.516 546.691L216.581 609.91C208.96 611.952 200.898 608.935 196.484 602.429L196.277 602.116L63.2441 397.264C58.9472 390.647 59.3259 382.048 64.1498 375.839L64.3825 375.545L218.1 185.721Z" stroke="url(#paint83_linear_15_91175)" stroke-width="3"/>
<path opacity="0.858586" d="M218.937 186.049C224.008 180.005 232.342 177.852 239.69 180.65L240.039 180.787L465.966 272.067C473.281 275.023 477.904 282.284 477.514 290.137L477.491 290.511L460.493 533.588C459.934 541.583 454.29 548.31 446.514 550.248L210.082 609.198C202.427 611.106 194.418 607.949 190.119 601.367L189.917 601.051L60.7909 394.406C56.6102 387.715 57.1388 379.124 62.0704 373L62.3081 372.711L218.937 186.049Z" stroke="url(#paint84_linear_15_91175)" stroke-width="3"/>
<path opacity="0.868687" d="M219.777 186.446C224.952 180.491 233.323 178.484 240.62 181.41L240.967 181.553L464.726 276.533C471.988 279.615 476.484 286.957 475.956 294.801L475.927 295.174L454.741 537.332C454.042 545.317 448.282 551.943 440.473 553.746L203.621 608.427C195.933 610.202 187.981 606.906 183.797 600.249L183.601 599.93L58.404 391.567C54.3408 384.805 55.0191 376.224 60.0569 370.188L60.2997 369.902L219.777 186.446Z" stroke="url(#paint85_linear_15_91175)" stroke-width="3"/>
<path opacity="0.878788" d="M220.618 186.912C225.897 181.049 234.301 179.188 241.547 182.241L241.891 182.39L463.421 281.022C470.628 284.231 474.995 291.649 474.331 299.483L474.295 299.857L448.947 541.023C448.109 548.994 442.234 555.518 434.395 557.185L197.2 607.602C189.482 609.242 181.589 605.808 177.522 599.079L177.332 598.756L56.0837 388.75C52.1389 381.918 52.9667 373.349 58.1093 367.402L58.3572 367.121L220.618 186.912Z" stroke="url(#paint86_linear_15_91175)" stroke-width="3"/>
<path opacity="0.888889" d="M221.459 187.447C226.84 181.677 235.275 179.963 242.466 183.142L242.808 183.297L462.05 285.532C469.2 288.866 473.437 296.358 472.636 304.179L472.594 304.553L443.113 544.657C442.136 552.612 436.148 559.033 428.281 560.562L190.818 606.721C183.073 608.226 175.242 604.654 171.293 597.855L171.108 597.529L53.8286 385.953C50.0036 379.052 50.9813 370.5 56.2266 364.643L56.4792 364.367L221.459 187.447Z" stroke="url(#paint87_linear_15_91175)" stroke-width="3"/>
<path opacity="0.89899" d="M222.3 188.05C227.78 182.375 236.244 180.809 243.379 184.113L243.717 184.274L460.614 290.061C467.705 293.52 471.81 301.086 470.873 308.892L470.824 309.264L437.238 548.235C436.123 556.171 430.024 562.487 422.132 563.879L184.478 605.784C176.708 607.154 168.94 603.445 165.11 596.579L164.931 596.25L51.6383 383.177C47.9345 376.211 49.0605 367.678 54.4068 361.914L54.6652 361.641L222.3 188.05Z" stroke="url(#paint88_linear_15_91175)" stroke-width="3"/>
<path opacity="0.909091" d="M223.138 188.724C228.717 183.145 237.207 181.727 244.282 185.154L244.618 185.322L459.112 294.611C466.141 298.193 470.114 305.829 469.04 313.618L468.985 313.989L431.326 551.756C430.072 559.672 423.864 565.881 415.949 567.134L178.18 604.793C170.388 606.027 162.686 602.184 158.976 595.252L158.803 594.92L49.5128 380.426C45.9312 373.397 47.2059 364.884 52.6521 359.214L52.9151 358.946L223.138 188.724Z" stroke="url(#paint89_linear_15_91175)" stroke-width="3"/>
<path opacity="0.919192" d="M223.973 189.463C229.648 183.983 238.161 182.713 245.176 186.263L245.509 186.437L457.543 299.177C464.509 302.881 468.348 310.585 467.139 318.354L467.077 318.724L425.377 555.219C423.985 563.112 417.669 569.211 409.733 570.327L171.925 603.749C164.113 604.846 156.479 600.869 152.891 593.874L152.723 593.538L47.451 377.698C43.9927 370.607 45.4156 362.118 50.96 356.544L51.2277 356.281L223.973 189.463Z" stroke="url(#paint90_linear_15_91175)" stroke-width="3"/>
<path opacity="0.929293" d="M224.803 190.272C230.572 184.891 239.107 183.77 246.059 187.443L246.388 187.622L455.909 303.761C462.809 307.586 466.512 315.356 465.168 323.102L465.1 323.471L419.391 558.626C417.862 566.493 411.44 572.481 403.485 573.458L165.714 602.652C157.884 603.614 150.321 599.504 146.855 592.447L146.693 592.109L45.4526 374.997C42.1184 367.847 43.6891 359.383 49.3302 353.907L49.6025 353.649L224.803 190.272Z" stroke="url(#paint91_linear_15_91175)" stroke-width="3"/>
<path opacity="0.939394" d="M225.627 191.149C231.49 185.87 240.042 184.897 246.929 188.691L247.256 188.875L454.208 308.359C461.04 312.304 464.607 320.138 463.128 327.859L463.054 328.227L413.37 561.974C411.704 569.813 405.179 575.688 397.208 576.526L159.548 601.505C151.702 602.329 144.212 598.088 140.87 590.972L140.714 590.631L43.517 372.322C40.3081 365.115 42.0266 356.681 47.7621 351.303L48.0389 351.05L225.627 191.149Z" stroke="url(#paint92_linear_15_91175)" stroke-width="3"/>
<path opacity="0.949495" d="M226.443 192.094C232.398 186.918 240.966 186.095 247.785 190.008L248.109 190.198L452.44 312.973C459.203 317.037 462.633 324.932 461.019 332.626L460.938 332.992L407.315 565.264C405.512 573.073 398.885 578.833 390.901 579.532L153.427 600.308C145.568 600.995 138.153 596.624 134.936 589.451L134.785 589.107L41.6432 369.676C38.5606 362.414 40.4259 354.011 46.2545 348.734L46.5356 348.485L226.443 192.094Z" stroke="url(#paint93_linear_15_91175)" stroke-width="3"/>
<path opacity="0.959596" d="M227.252 193.105C233.296 188.033 241.877 187.36 248.627 191.392L248.947 191.588L450.607 317.598C457.298 321.779 460.589 329.733 458.841 337.398L458.754 337.762L401.227 568.492C399.288 576.268 392.562 581.912 384.567 582.471L147.353 599.059C139.483 599.609 132.145 595.109 129.054 587.88L128.909 587.534L39.8312 367.056C36.8759 359.741 38.8875 351.372 44.8073 346.198L45.0918 345.954L227.252 193.105Z" stroke="url(#paint94_linear_15_91175)" stroke-width="3"/>
<path opacity="0.969697" d="M228.051 194.184C234.182 189.219 242.774 188.695 249.453 192.844L249.769 193.045L448.706 322.236C455.323 326.533 458.475 334.543 456.593 342.176L456.5 342.54L395.107 571.662C393.033 579.404 386.209 584.929 378.205 585.348L141.325 597.763C133.447 598.176 126.189 593.548 123.224 586.267L123.086 585.918L38.0796 364.469C35.2522 357.103 37.4095 348.769 43.4189 343.7L43.7076 343.461L228.051 194.184Z" stroke="url(#paint95_linear_15_91175)" stroke-width="3"/>
<path opacity="0.979798" d="M228.84 195.328C235.056 190.47 243.656 190.097 250.261 194.362L250.574 194.569L446.739 326.883C453.28 331.295 456.291 339.358 454.276 346.958L454.177 347.32L388.957 574.771C386.748 582.475 379.829 587.88 371.819 588.16L135.346 596.418C127.461 596.693 120.285 591.94 117.448 584.607L117.316 584.256L36.3884 361.909C33.6901 354.496 35.9927 346.202 42.0894 341.238L42.3822 341.004L228.84 195.328Z" stroke="url(#paint96_linear_15_91175)" stroke-width="3"/>
<path opacity="0.989899" d="M229.616 196.539C235.917 191.791 244.522 191.568 251.051 195.947L251.361 196.16L444.705 331.541C451.168 336.066 454.039 344.181 451.892 351.744L451.786 352.104L382.777 577.82C380.434 585.484 373.422 590.768 365.408 590.908L129.415 595.028C121.527 595.165 114.434 590.287 111.725 582.907L111.6 582.553L34.7565 359.383C32.188 351.923 34.6349 343.671 40.8174 338.814L41.1143 338.585L229.616 196.539Z" stroke="url(#paint97_linear_15_91175)" stroke-width="3"/>
<path d="M230.38 197.817C236.763 193.18 245.37 193.107 251.822 197.599L252.128 197.817L442.604 336.206C448.987 340.843 451.716 349.007 449.438 356.532L449.325 356.889L376.569 580.807C374.093 588.43 366.989 593.591 358.975 593.591H123.533C115.644 593.591 108.637 588.59 106.058 581.164L105.938 580.808L33.1826 356.889C30.7448 349.386 33.3362 341.177 39.6025 336.429L39.9033 336.206L230.38 197.817Z" stroke="url(#paint98_linear_15_91175)" stroke-width="3"/>
<defs>
<linearGradient id="paint0_linear_15_91175" x1="558.066" y1="473.303" x2="512.706" y2="150.554" gradientUnits="userSpaceOnUse">
<stop stop-color="#FF1CF7"/>
<stop offset="1" stop-color="#00F0FF"/>
</linearGradient>
<linearGradient id="paint1_linear_15_91175" x1="552.264" y1="474.387" x2="512.617" y2="151.486" gradientUnits="userSpaceOnUse">
<stop stop-color="#FF1CF7"/>
<stop offset="1" stop-color="#00F0FF"/>
</linearGradient>
<linearGradient id="paint2_linear_15_91175" x1="546.467" y1="475.422" x2="512.523" y2="152.469" gradientUnits="userSpaceOnUse">
<stop stop-color="#FF1CF7"/>
<stop offset="1" stop-color="#00F0FF"/>
</linearGradient>
<linearGradient id="paint3_linear_15_91175" x1="540.674" y1="476.409" x2="512.423" y2="153.505" gradientUnits="userSpaceOnUse">
<stop stop-color="#FF1CF7"/>
<stop offset="1" stop-color="#00F0FF"/>
</linearGradient>
<linearGradient id="paint4_linear_15_91175" x1="534.887" y1="477.346" x2="512.317" y2="154.592" gradientUnits="userSpaceOnUse">
<stop stop-color="#FF1CF7"/>
<stop offset="1" stop-color="#00F0FF"/>
</linearGradient>
<linearGradient id="paint5_linear_15_91175" x1="529.106" y1="478.233" x2="512.204" y2="155.728" gradientUnits="userSpaceOnUse">
<stop stop-color="#FF1CF7"/>
<stop offset="1" stop-color="#00F0FF"/>
</linearGradient>
<linearGradient id="paint6_linear_15_91175" x1="523.333" y1="479.071" x2="512.083" y2="156.915" gradientUnits="userSpaceOnUse">
<stop stop-color="#FF1CF7"/>
<stop offset="1" stop-color="#00F0FF"/>
</linearGradient>
<linearGradient id="paint7_linear_15_91175" x1="517.568" y1="479.862" x2="511.953" y2="158.153" gradientUnits="userSpaceOnUse">
<stop stop-color="#FF1CF7"/>
<stop offset="1" stop-color="#00F0FF"/>
</linearGradient>
<linearGradient id="paint8_linear_15_91175" x1="511.813" y1="480.604" x2="511.813" y2="159.441" gradientUnits="userSpaceOnUse">
<stop stop-color="#FF1CF7"/>
<stop offset="1" stop-color="#00F0FF"/>
</linearGradient>
<linearGradient id="paint9_linear_15_91175" x1="506.067" y1="481.298" x2="511.662" y2="160.778" gradientUnits="userSpaceOnUse">
<stop stop-color="#FF1CF7"/>
<stop offset="1" stop-color="#00F0FF"/>
</linearGradient>
<linearGradient id="paint10_linear_15_91175" x1="500.333" y1="481.945" x2="511.5" y2="162.166" gradientUnits="userSpaceOnUse">
<stop stop-color="#FF1CF7"/>
<stop offset="1" stop-color="#00F0FF"/>
</linearGradient>
<linearGradient id="paint11_linear_15_91175" x1="494.61" y1="482.543" x2="511.325" y2="163.601" gradientUnits="userSpaceOnUse">
<stop stop-color="#FF1CF7"/>
<stop offset="1" stop-color="#00F0FF"/>
</linearGradient>
<linearGradient id="paint12_linear_15_91175" x1="488.899" y1="483.095" x2="511.136" y2="165.087" gradientUnits="userSpaceOnUse">
<stop stop-color="#FF1CF7"/>
<stop offset="1" stop-color="#00F0FF"/>
</linearGradient>
<linearGradient id="paint13_linear_15_91175" x1="483.202" y1="483.6" x2="510.934" y2="166.621" gradientUnits="userSpaceOnUse">
<stop stop-color="#FF1CF7"/>
<stop offset="1" stop-color="#00F0FF"/>
</linearGradient>
<linearGradient id="paint14_linear_15_91175" x1="477.519" y1="484.058" x2="510.717" y2="168.203" gradientUnits="userSpaceOnUse">
<stop stop-color="#FF1CF7"/>
<stop offset="1" stop-color="#00F0FF"/>
</linearGradient>
<linearGradient id="paint15_linear_15_91175" x1="471.851" y1="484.47" x2="510.483" y2="169.833" gradientUnits="userSpaceOnUse">
<stop stop-color="#FF1CF7"/>
<stop offset="1" stop-color="#00F0FF"/>
</linearGradient>
<linearGradient id="paint16_linear_15_91175" x1="466.198" y1="484.837" x2="510.233" y2="171.511" gradientUnits="userSpaceOnUse">
<stop stop-color="#FF1CF7"/>
<stop offset="1" stop-color="#00F0FF"/>
</linearGradient>
<linearGradient id="paint17_linear_15_91175" x1="460.562" y1="485.158" x2="509.966" y2="173.235" gradientUnits="userSpaceOnUse">
<stop stop-color="#FF1CF7"/>
<stop offset="1" stop-color="#00F0FF"/>
</linearGradient>
<linearGradient id="paint18_linear_15_91175" x1="454.944" y1="485.434" x2="509.68" y2="175.007" gradientUnits="userSpaceOnUse">
<stop stop-color="#FF1CF7"/>
<stop offset="1" stop-color="#00F0FF"/>
</linearGradient>
<linearGradient id="paint19_linear_15_91175" x1="449.343" y1="485.663" x2="509.376" y2="176.823" gradientUnits="userSpaceOnUse">
<stop stop-color="#FF1CF7"/>
<stop offset="1" stop-color="#00F0FF"/>
</linearGradient>
<linearGradient id="paint20_linear_15_91175" x1="443.762" y1="485.851" x2="509.051" y2="178.687" gradientUnits="userSpaceOnUse">
<stop stop-color="#FF1CF7"/>
<stop offset="1" stop-color="#00F0FF"/>
</linearGradient>
<linearGradient id="paint21_linear_15_91175" x1="438.199" y1="485.993" x2="508.706" y2="180.595" gradientUnits="userSpaceOnUse">
<stop stop-color="#FF1CF7"/>
<stop offset="1" stop-color="#00F0FF"/>
</linearGradient>
<linearGradient id="paint22_linear_15_91175" x1="432.657" y1="486.093" x2="508.339" y2="182.549" gradientUnits="userSpaceOnUse">
<stop stop-color="#FF1CF7"/>
<stop offset="1" stop-color="#00F0FF"/>
</linearGradient>
<linearGradient id="paint23_linear_15_91175" x1="427.137" y1="486.15" x2="507.951" y2="184.548" gradientUnits="userSpaceOnUse">
<stop stop-color="#FF1CF7"/>
<stop offset="1" stop-color="#00F0FF"/>
</linearGradient>
<linearGradient id="paint24_linear_15_91175" x1="421.637" y1="486.164" x2="507.539" y2="186.589" gradientUnits="userSpaceOnUse">
<stop stop-color="#FF1CF7"/>
<stop offset="1" stop-color="#00F0FF"/>
</linearGradient>
<linearGradient id="paint25_linear_15_91175" x1="416.161" y1="486.135" x2="507.104" y2="188.674" gradientUnits="userSpaceOnUse">
<stop stop-color="#FF1CF7"/>
<stop offset="1" stop-color="#00F0FF"/>
</linearGradient>
<linearGradient id="paint26_linear_15_91175" x1="410.707" y1="486.066" x2="506.644" y2="190.803" gradientUnits="userSpaceOnUse">
<stop stop-color="#FF1CF7"/>
<stop offset="1" stop-color="#00F0FF"/>
</linearGradient>
<linearGradient id="paint27_linear_15_91175" x1="405.278" y1="485.956" x2="506.159" y2="192.974" gradientUnits="userSpaceOnUse">
<stop stop-color="#FF1CF7"/>
<stop offset="1" stop-color="#00F0FF"/>
</linearGradient>
<linearGradient id="paint28_linear_15_91175" x1="399.873" y1="485.805" x2="505.649" y2="195.188" gradientUnits="userSpaceOnUse">
<stop stop-color="#FF1CF7"/>
<stop offset="1" stop-color="#00F0FF"/>
</linearGradient>
<linearGradient id="paint29_linear_15_91175" x1="394.493" y1="485.613" x2="505.112" y2="197.442" gradientUnits="userSpaceOnUse">
<stop stop-color="#FF1CF7"/>
<stop offset="1" stop-color="#00F0FF"/>
</linearGradient>
<linearGradient id="paint30_linear_15_91175" x1="389.139" y1="485.383" x2="504.547" y2="199.737" gradientUnits="userSpaceOnUse">
<stop stop-color="#FF1CF7"/>
<stop offset="1" stop-color="#00F0FF"/>
</linearGradient>
<linearGradient id="paint31_linear_15_91175" x1="383.812" y1="485.113" x2="503.955" y2="202.072" gradientUnits="userSpaceOnUse">
<stop stop-color="#FF1CF7"/>
<stop offset="1" stop-color="#00F0FF"/>
</linearGradient>
<linearGradient id="paint32_linear_15_91175" x1="378.512" y1="484.805" x2="503.335" y2="204.448" gradientUnits="userSpaceOnUse">
<stop stop-color="#FF1CF7"/>
<stop offset="1" stop-color="#00F0FF"/>
</linearGradient>
<linearGradient id="paint33_linear_15_91175" x1="373.239" y1="484.459" x2="502.685" y2="206.861" gradientUnits="userSpaceOnUse">
<stop stop-color="#FF1CF7"/>
<stop offset="1" stop-color="#00F0FF"/>
</linearGradient>
<linearGradient id="paint34_linear_15_91175" x1="367.995" y1="484.076" x2="502.005" y2="209.315" gradientUnits="userSpaceOnUse">
<stop stop-color="#FF1CF7"/>
<stop offset="1" stop-color="#00F0FF"/>
</linearGradient>
<linearGradient id="paint35_linear_15_91175" x1="362.78" y1="483.656" x2="501.295" y2="211.805" gradientUnits="userSpaceOnUse">
<stop stop-color="#FF1CF7"/>
<stop offset="1" stop-color="#00F0FF"/>
</linearGradient>
<linearGradient id="paint36_linear_15_91175" x1="357.595" y1="483.2" x2="500.554" y2="214.334" gradientUnits="userSpaceOnUse">
<stop stop-color="#FF1CF7"/>
<stop offset="1" stop-color="#00F0FF"/>
</linearGradient>
<linearGradient id="paint37_linear_15_91175" x1="352.44" y1="482.708" x2="499.782" y2="216.898" gradientUnits="userSpaceOnUse">
<stop stop-color="#FF1CF7"/>
<stop offset="1" stop-color="#00F0FF"/>
</linearGradient>
<linearGradient id="paint38_linear_15_91175" x1="347.316" y1="482.182" x2="498.976" y2="219.499" gradientUnits="userSpaceOnUse">
<stop stop-color="#FF1CF7"/>
<stop offset="1" stop-color="#00F0FF"/>
</linearGradient>
<linearGradient id="paint39_linear_15_91175" x1="342.223" y1="481.621" x2="498.139" y2="222.134" gradientUnits="userSpaceOnUse">
<stop stop-color="#FF1CF7"/>
<stop offset="1" stop-color="#00F0FF"/>
</linearGradient>
<linearGradient id="paint40_linear_15_91175" x1="337.162" y1="481.027" x2="497.267" y2="224.805" gradientUnits="userSpaceOnUse">
<stop stop-color="#FF1CF7"/>
<stop offset="1" stop-color="#00F0FF"/>
</linearGradient>
<linearGradient id="paint41_linear_15_91175" x1="332.134" y1="480.4" x2="496.362" y2="227.51" gradientUnits="userSpaceOnUse">
<stop stop-color="#FF1CF7"/>
<stop offset="1" stop-color="#00F0FF"/>
</linearGradient>
<linearGradient id="paint42_linear_15_91175" x1="327.138" y1="479.74" x2="495.423" y2="230.248" gradientUnits="userSpaceOnUse">
<stop stop-color="#FF1CF7"/>
<stop offset="1" stop-color="#00F0FF"/>
</linearGradient>
<linearGradient id="paint43_linear_15_91175" x1="322.176" y1="479.048" x2="494.448" y2="233.018" gradientUnits="userSpaceOnUse">
<stop stop-color="#FF1CF7"/>
<stop offset="1" stop-color="#00F0FF"/>
</linearGradient>
<linearGradient id="paint44_linear_15_91175" x1="317.248" y1="478.327" x2="493.438" y2="235.822" gradientUnits="userSpaceOnUse">
<stop stop-color="#FF1CF7"/>
<stop offset="1" stop-color="#00F0FF"/>
</linearGradient>
<linearGradient id="paint45_linear_15_91175" x1="312.355" y1="477.574" x2="492.392" y2="238.656" gradientUnits="userSpaceOnUse">
<stop stop-color="#FF1CF7"/>
<stop offset="1" stop-color="#00F0FF"/>
</linearGradient>
<linearGradient id="paint46_linear_15_91175" x1="307.496" y1="476.791" x2="491.31" y2="241.52" gradientUnits="userSpaceOnUse">
<stop stop-color="#FF1CF7"/>
<stop offset="1" stop-color="#00F0FF"/>
</linearGradient>
<linearGradient id="paint47_linear_15_91175" x1="302.673" y1="475.979" x2="490.19" y2="244.415" gradientUnits="userSpaceOnUse">
<stop stop-color="#FF1CF7"/>
<stop offset="1" stop-color="#00F0FF"/>
</linearGradient>
<linearGradient id="paint48_linear_15_91175" x1="297.885" y1="475.139" x2="489.033" y2="247.338" gradientUnits="userSpaceOnUse">
<stop stop-color="#FF1CF7"/>
<stop offset="1" stop-color="#00F0FF"/>
</linearGradient>
<linearGradient id="paint49_linear_15_91175" x1="293.134" y1="474.272" x2="487.838" y2="250.29" gradientUnits="userSpaceOnUse">
<stop stop-color="#FF1CF7"/>
<stop offset="1" stop-color="#00F0FF"/>
</linearGradient>
<linearGradient id="paint50_linear_15_91175" x1="288.42" y1="473.378" x2="486.605" y2="253.27" gradientUnits="userSpaceOnUse">
<stop stop-color="#FF1CF7"/>
<stop offset="1" stop-color="#00F0FF"/>
</linearGradient>
<linearGradient id="paint51_linear_15_91175" x1="283.742" y1="472.457" x2="485.333" y2="256.277" gradientUnits="userSpaceOnUse">
<stop stop-color="#FF1CF7"/>
<stop offset="1" stop-color="#00F0FF"/>
</linearGradient>
<linearGradient id="paint52_linear_15_91175" x1="279.102" y1="471.511" x2="484.023" y2="259.31" gradientUnits="userSpaceOnUse">
<stop stop-color="#FF1CF7"/>
<stop offset="1" stop-color="#00F0FF"/>
</linearGradient>
<linearGradient id="paint53_linear_15_91175" x1="274.5" y1="470.54" x2="482.672" y2="262.368" gradientUnits="userSpaceOnUse">
<stop stop-color="#FF1CF7"/>
<stop offset="1" stop-color="#00F0FF"/>
</linearGradient>
<linearGradient id="paint54_linear_15_91175" x1="269.936" y1="469.545" x2="481.282" y2="265.451" gradientUnits="userSpaceOnUse">
<stop stop-color="#FF1CF7"/>
<stop offset="1" stop-color="#00F0FF"/>
</linearGradient>
<linearGradient id="paint55_linear_15_91175" x1="265.411" y1="468.527" x2="479.851" y2="268.558" gradientUnits="userSpaceOnUse">
<stop stop-color="#FF1CF7"/>
<stop offset="1" stop-color="#00F0FF"/>
</linearGradient>
<linearGradient id="paint56_linear_15_91175" x1="260.925" y1="467.486" x2="478.38" y2="271.688" gradientUnits="userSpaceOnUse">
<stop stop-color="#FF1CF7"/>
<stop offset="1" stop-color="#00F0FF"/>
</linearGradient>
<linearGradient id="paint57_linear_15_91175" x1="256.478" y1="466.424" x2="476.868" y2="274.841" gradientUnits="userSpaceOnUse">
<stop stop-color="#FF1CF7"/>
<stop offset="1" stop-color="#00F0FF"/>
</linearGradient>
<linearGradient id="paint58_linear_15_91175" x1="252.07" y1="465.34" x2="475.315" y2="278.015" gradientUnits="userSpaceOnUse">
<stop stop-color="#FF1CF7"/>
<stop offset="1" stop-color="#00F0FF"/>
</linearGradient>
<linearGradient id="paint59_linear_15_91175" x1="247.702" y1="464.236" x2="473.72" y2="281.21" gradientUnits="userSpaceOnUse">
<stop stop-color="#FF1CF7"/>
<stop offset="1" stop-color="#00F0FF"/>
</linearGradient>
<linearGradient id="paint60_linear_15_91175" x1="243.375" y1="463.112" x2="472.084" y2="284.425" gradientUnits="userSpaceOnUse">
<stop stop-color="#FF1CF7"/>
<stop offset="1" stop-color="#00F0FF"/>
</linearGradient>
<linearGradient id="paint61_linear_15_91175" x1="239.087" y1="461.97" x2="470.405" y2="287.66" gradientUnits="userSpaceOnUse">
<stop stop-color="#FF1CF7"/>
<stop offset="1" stop-color="#00F0FF"/>
</linearGradient>
<linearGradient id="paint62_linear_15_91175" x1="234.841" y1="460.81" x2="468.684" y2="290.913" gradientUnits="userSpaceOnUse">
<stop stop-color="#FF1CF7"/>
<stop offset="1" stop-color="#00F0FF"/>
</linearGradient>
<linearGradient id="paint63_linear_15_91175" x1="230.635" y1="459.633" x2="466.921" y2="294.183" gradientUnits="userSpaceOnUse">
<stop stop-color="#FF1CF7"/>
<stop offset="1" stop-color="#00F0FF"/>
</linearGradient>
<linearGradient id="paint64_linear_15_91175" x1="226.47" y1="458.439" x2="465.115" y2="297.471" gradientUnits="userSpaceOnUse">
<stop stop-color="#FF1CF7"/>
<stop offset="1" stop-color="#00F0FF"/>
</linearGradient>
<linearGradient id="paint65_linear_15_91175" x1="222.347" y1="457.228" x2="463.266" y2="300.773" gradientUnits="userSpaceOnUse">
<stop stop-color="#FF1CF7"/>
<stop offset="1" stop-color="#00F0FF"/>
</linearGradient>
<linearGradient id="paint66_linear_15_91175" x1="218.265" y1="456.003" x2="461.373" y2="304.092" gradientUnits="userSpaceOnUse">
<stop stop-color="#FF1CF7"/>
<stop offset="1" stop-color="#00F0FF"/>
</linearGradient>
<linearGradient id="paint67_linear_15_91175" x1="214.224" y1="454.764" x2="459.437" y2="307.425" gradientUnits="userSpaceOnUse">
<stop stop-color="#FF1CF7"/>
<stop offset="1" stop-color="#00F0FF"/>
</linearGradient>
<linearGradient id="paint68_linear_15_91175" x1="210.226" y1="453.511" x2="457.458" y2="310.771" gradientUnits="userSpaceOnUse">
<stop stop-color="#FF1CF7"/>
<stop offset="1" stop-color="#00F0FF"/>
</linearGradient>
<linearGradient id="paint69_linear_15_91175" x1="206.27" y1="452.246" x2="455.435" y2="314.132" gradientUnits="userSpaceOnUse">
<stop stop-color="#FF1CF7"/>
<stop offset="1" stop-color="#00F0FF"/>
</linearGradient>
<linearGradient id="paint70_linear_15_91175" x1="202.356" y1="450.968" x2="453.368" y2="317.503" gradientUnits="userSpaceOnUse">
<stop stop-color="#FF1CF7"/>
<stop offset="1" stop-color="#00F0FF"/>
</linearGradient>
<linearGradient id="paint71_linear_15_91175" x1="198.483" y1="449.68" x2="451.257" y2="320.886" gradientUnits="userSpaceOnUse">
<stop stop-color="#FF1CF7"/>
<stop offset="1" stop-color="#00F0FF"/>
</linearGradient>
<linearGradient id="paint72_linear_15_91175" x1="194.654" y1="448.381" x2="449.102" y2="324.279" gradientUnits="userSpaceOnUse">
<stop stop-color="#FF1CF7"/>
<stop offset="1" stop-color="#00F0FF"/>
</linearGradient>
<linearGradient id="paint73_linear_15_91175" x1="190.866" y1="447.074" x2="446.903" y2="327.682" gradientUnits="userSpaceOnUse">
<stop stop-color="#FF1CF7"/>
<stop offset="1" stop-color="#00F0FF"/>
</linearGradient>
<linearGradient id="paint74_linear_15_91175" x1="187.122" y1="445.756" x2="444.659" y2="331.093" gradientUnits="userSpaceOnUse">
<stop stop-color="#FF1CF7"/>
<stop offset="1" stop-color="#00F0FF"/>
</linearGradient>
<linearGradient id="paint75_linear_15_91175" x1="183.42" y1="444.431" x2="442.372" y2="334.513" gradientUnits="userSpaceOnUse">
<stop stop-color="#FF1CF7"/>
<stop offset="1" stop-color="#00F0FF"/>
</linearGradient>
<linearGradient id="paint76_linear_15_91175" x1="179.76" y1="443.1" x2="440.04" y2="337.94" gradientUnits="userSpaceOnUse">
<stop stop-color="#FF1CF7"/>
<stop offset="1" stop-color="#00F0FF"/>
</linearGradient>
<linearGradient id="paint77_linear_15_91175" x1="176.144" y1="441.762" x2="437.663" y2="341.374" gradientUnits="userSpaceOnUse">
<stop stop-color="#FF1CF7"/>
<stop offset="1" stop-color="#00F0FF"/>
</linearGradient>
<linearGradient id="paint78_linear_15_91175" x1="172.569" y1="440.417" x2="435.243" y2="344.812" gradientUnits="userSpaceOnUse">
<stop stop-color="#FF1CF7"/>
<stop offset="1" stop-color="#00F0FF"/>
</linearGradient>
<linearGradient id="paint79_linear_15_91175" x1="169.038" y1="439.068" x2="432.778" y2="348.256" gradientUnits="userSpaceOnUse">
<stop stop-color="#FF1CF7"/>
<stop offset="1" stop-color="#00F0FF"/>
</linearGradient>
<linearGradient id="paint80_linear_15_91175" x1="165.549" y1="437.715" x2="430.268" y2="351.703" gradientUnits="userSpaceOnUse">
<stop stop-color="#FF1CF7"/>
<stop offset="1" stop-color="#00F0FF"/>
</linearGradient>
<linearGradient id="paint81_linear_15_91175" x1="162.103" y1="436.359" x2="427.714" y2="355.153" gradientUnits="userSpaceOnUse">
<stop stop-color="#FF1CF7"/>
<stop offset="1" stop-color="#00F0FF"/>
</linearGradient>
<linearGradient id="paint82_linear_15_91175" x1="158.7" y1="434.999" x2="425.116" y2="358.606" gradientUnits="userSpaceOnUse">
<stop stop-color="#FF1CF7"/>
<stop offset="1" stop-color="#00F0FF"/>
</linearGradient>
<linearGradient id="paint83_linear_15_91175" x1="155.339" y1="433.639" x2="422.473" y2="362.06" gradientUnits="userSpaceOnUse">
<stop stop-color="#FF1CF7"/>
<stop offset="1" stop-color="#00F0FF"/>
</linearGradient>
<linearGradient id="paint84_linear_15_91175" x1="152.021" y1="432.276" x2="419.787" y2="365.515" gradientUnits="userSpaceOnUse">
<stop stop-color="#FF1CF7"/>
<stop offset="1" stop-color="#00F0FF"/>
</linearGradient>
<linearGradient id="paint85_linear_15_91175" x1="148.746" y1="430.914" x2="417.056" y2="368.97" gradientUnits="userSpaceOnUse">
<stop stop-color="#FF1CF7"/>
<stop offset="1" stop-color="#00F0FF"/>
</linearGradient>
<linearGradient id="paint86_linear_15_91175" x1="145.513" y1="429.553" x2="414.281" y2="372.425" gradientUnits="userSpaceOnUse">
<stop stop-color="#FF1CF7"/>
<stop offset="1" stop-color="#00F0FF"/>
</linearGradient>
<linearGradient id="paint87_linear_15_91175" x1="142.322" y1="428.193" x2="411.462" y2="375.877" gradientUnits="userSpaceOnUse">
<stop stop-color="#FF1CF7"/>
<stop offset="1" stop-color="#00F0FF"/>
</linearGradient>
<linearGradient id="paint88_linear_15_91175" x1="139.173" y1="426.834" x2="408.6" y2="379.327" gradientUnits="userSpaceOnUse">
<stop stop-color="#FF1CF7"/>
<stop offset="1" stop-color="#00F0FF"/>
</linearGradient>
<linearGradient id="paint89_linear_15_91175" x1="136.066" y1="425.48" x2="405.694" y2="382.775" gradientUnits="userSpaceOnUse">
<stop stop-color="#FF1CF7"/>
<stop offset="1" stop-color="#00F0FF"/>
</linearGradient>
<linearGradient id="paint90_linear_15_91175" x1="133.001" y1="424.127" x2="402.744" y2="386.217" gradientUnits="userSpaceOnUse">
<stop stop-color="#FF1CF7"/>
<stop offset="1" stop-color="#00F0FF"/>
</linearGradient>
<linearGradient id="paint91_linear_15_91175" x1="129.978" y1="422.78" x2="399.751" y2="389.656" gradientUnits="userSpaceOnUse">
<stop stop-color="#FF1CF7"/>
<stop offset="1" stop-color="#00F0FF"/>
</linearGradient>
<linearGradient id="paint92_linear_15_91175" x1="126.996" y1="421.437" x2="396.715" y2="393.088" gradientUnits="userSpaceOnUse">
<stop stop-color="#FF1CF7"/>
<stop offset="1" stop-color="#00F0FF"/>
</linearGradient>
<linearGradient id="paint93_linear_15_91175" x1="124.056" y1="420.101" x2="393.636" y2="396.516" gradientUnits="userSpaceOnUse">
<stop stop-color="#FF1CF7"/>
<stop offset="1" stop-color="#00F0FF"/>
</linearGradient>
<linearGradient id="paint94_linear_15_91175" x1="121.157" y1="418.77" x2="390.514" y2="399.935" gradientUnits="userSpaceOnUse">
<stop stop-color="#FF1CF7"/>
<stop offset="1" stop-color="#00F0FF"/>
</linearGradient>
<linearGradient id="paint95_linear_15_91175" x1="118.299" y1="417.448" x2="387.35" y2="403.347" gradientUnits="userSpaceOnUse">
<stop stop-color="#FF1CF7"/>
<stop offset="1" stop-color="#00F0FF"/>
</linearGradient>
<linearGradient id="paint96_linear_15_91175" x1="115.482" y1="416.131" x2="384.144" y2="406.749" gradientUnits="userSpaceOnUse">
<stop stop-color="#FF1CF7"/>
<stop offset="1" stop-color="#00F0FF"/>
</linearGradient>
<linearGradient id="paint97_linear_15_91175" x1="112.705" y1="414.825" x2="380.895" y2="410.144" gradientUnits="userSpaceOnUse">
<stop stop-color="#FF1CF7"/>
<stop offset="1" stop-color="#00F0FF"/>
</linearGradient>
<linearGradient id="paint98_linear_15_91175" x1="109.969" y1="413.528" x2="377.605" y2="413.528" gradientUnits="userSpaceOnUse">
<stop stop-color="#FF1CF7"/>
<stop offset="1" stop-color="#00F0FF"/>
</linearGradient>
</defs>
</svg>
